<svg fill="none" height="563" viewBox="0 0 1440 563" width="1440" xmlns="http://www.w3.org/2000/svg" xmlns:xlink="http://www.w3.org/1999/xlink">
  <!-- Solar Energy Background -->
  <rect width="100%" height="100%" fill="#87CEEB"/>
  <circle cx="720" cy="300" r="200" fill="#FFD700"/>
  <rect x="600" y="100" width="240" height="20" fill="#32CD32"/>
  <rect x="630" y="60" width="180" height="20" transform="rotate(45 720 80)" fill="#32CD32"/>
  <!-- End of Solar Energy Background -->

  <linearGradient id="a" gradientUnits="userSpaceOnUse" x1="720" x2="720" y1="1" y2="562">
    <stop offset="0" stop-color="#f7cc4a" stop-opacity="0"/>
    <stop offset="1" stop-color="#f7cc4a"/>
  </linearGradient>
  <linearGradient id="b">
    <stop offset="0" stop-color="#f7cc4a" stop-opacity=".5"/>
    <stop offset="1" stop-color="#b68c24" stop-opacity="0"/>
  </linearGradient>
  <linearGradient id="c" gradientUnits="userSpaceOnUse" x1="-18.9868" x2="202.082" xlink:href="#b" y1="176.5" y2="533.363"/>
  <linearGradient id="d" gradientUnits="userSpaceOnUse" x1="276.308" x2="430.232" xlink:href="#b" y1="609" y2="334.49"/>
  <linearGradient id="e" gradientUnits="userSpaceOnUse" x1="1080.2" x2="1132.87" y1="121.062" y2="340.496">
    <stop offset="0" stop-color="#f7cc4a" stop-opacity=".31"/>
    <stop offset="1" stop-color="#b68c24" stop-opacity="0"/>
  </linearGradient>
  <!-- Change the path data to represent a solar energy-themed background -->
  <path d="M0 87 263.536 174 659.834-260 516.63 224.5M0 163.5 466.409 100 696.63 423.5 276.961 610" stroke="url(#a)"/>
  <path d="M276.808 561.5-12.991-300.5-263.817-174v288z" fill="url(#c)"/>
  <path d="M339.764 231-75.947 30 12.991 301 272.81-127z" fill="url(#d)"/>
  <path d="M1439 225-335.77-146v177l335.77 46z" fill="url(#e)"/>
</svg>
